<svg width="739" height="9" fill="none" xmlns="http://www.w3.org/2000/svg"><path fill-rule="evenodd" clip-rule="evenodd" d="M1890 4c0-.552-.85-1-1.9-1H2.262c-1.05 0-1.9.448-1.9 1s.85 1 1.9 1H1888.1c1.05 0 1.9-.448 1.9-1z" fill="#FD685D"/><path fill-rule="evenodd" clip-rule="evenodd" d="M10.646.35c-.681-.42-1.881-.47-2.68-.11l-7.3 3.28c-.798.358-.892.99-.21 1.41.681.42 1.881.47 2.68.11l7.3-3.28c.798-.358.892-.99.21-1.41z" fill="#FD685D"/><path fill-rule="evenodd" clip-rule="evenodd" d="M.454 3.642c-.681.42-.585 1.051.214 1.41l7.3 3.27c.8.357 2 .307 2.68-.114.681-.42.585-1.051-.214-1.41l-7.3-3.27c-.8-.357-2-.307-2.68.114z" fill="#FD685D"/></svg>