<svg width="13" height="15" fill="none" xmlns="http://www.w3.org/2000/svg"><g clip-path="url(#clip0)"><path d="M12.848 5.914H.152v8.73h12.697v-8.73z" fill="#B8D8D8"/><path d="M9.675 2.957L6.5 0 3.327 2.957.152 5.913 3.327 8.87 6.5 11.825 9.675 8.87l3.173-2.956-3.173-2.956z" fill="#B8D8D8"/><path d="M6.5 8.93l3.175 2.957 3.173 2.955H.152l3.175-2.955L6.5 8.93z" fill="#B8D8D8"/><path d="M12.848 15H.152a.15.15 0 01-.141-.101.16.16 0 01.04-.174L6.4 8.812a.146.146 0 01.202 0l6.348 5.913a.161.161 0 01.04.174.151.151 0 01-.142.101zm-12.3-.316h11.903L6.5 9.142.549 14.684z" fill="#FD685D"/><path d="M7.928 3.312c.41.224.732.537.96.938.23.401.343.853.343 1.358 0 .522-.099.93-.294 1.223a.927.927 0 01-.814.442.782.782 0 01-.467-.134.7.7 0 01-.265-.389c-.23.35-.577.523-1.038.523a1.32 1.32 0 01-1.205-.74 1.708 1.708 0 01-.179-.793c0-.293.06-.555.18-.785a1.332 1.332 0 011.205-.738c.204 0 .387.036.55.109.163.073.3.178.411.319v-.392h.641v2.044c0 .144.028.248.084.313a.271.271 0 00.216.096c.158 0 .278-.093.361-.28.083-.186.124-.456.124-.808 0-.425-.094-.8-.28-1.125a1.963 1.963 0 00-.782-.758 2.4 2.4 0 00-1.153-.27c-.438 0-.828.095-1.166.286-.338.191-.6.457-.785.796a2.397 2.397 0 00-.277 1.161c0 .44.09.832.274 1.172.182.341.441.606.776.796.335.191.719.286 1.154.286.187 0 .378-.022.574-.066a2.26 2.26 0 00.545-.2l.157.48c-.17.092-.369.163-.598.21a3.23 3.23 0 01-.677.073c-.538 0-1.014-.118-1.428-.355a2.487 2.487 0 01-.963-.98 2.897 2.897 0 01-.343-1.418c0-.52.115-.988.346-1.404.23-.415.554-.74.971-.977.417-.237.897-.356 1.44-.356.523.007.99.119 1.402.343zm-.84 3.123c.16-.171.24-.402.24-.695 0-.29-.08-.517-.24-.686a.805.805 0 00-.614-.253.802.802 0 00-.617.256c-.157.17-.236.398-.236.683 0 .289.079.518.236.691a.799.799 0 00.617.26c.25 0 .455-.086.614-.256z" fill="#fff"/><path d="M12.848 15H.152A.155.155 0 010 14.842V5.914c0-.059.03-.113.08-.14a.15.15 0 01.156.008l5.465 3.843c.07.05.088.147.041.22a.148.148 0 01-.21.042L.303 6.211v8.475h12.394V6.21L7.47 9.886a.148.148 0 01-.21-.043.162.162 0 01.04-.22l5.464-3.842a.144.144 0 01.156-.008c.05.027.08.08.08.139v8.93a.154.154 0 01-.152.158z" fill="#FD685D"/></g><defs><clipPath id="clip0"><path fill="#fff" d="M0 0h13v15H0z"/></clipPath></defs></svg>