<svg width="14" height="18" fill="none" xmlns="http://www.w3.org/2000/svg"><g clip-path="url(#clip0)"><path d="M13.996 6.876C13.996 3.08 10.863 0 6.998 0 3.136 0 .003 3.08.003 6.876c0 0-.397 5.678 6.057 10.8a1.518 1.518 0 001.875 0c6.458-5.122 6.06-10.8 6.06-10.8z" fill="#B8D8D8"/><path d="M7 10.017c1.867 0 3.38-1.489 3.38-3.325S8.868 3.368 7 3.368c-1.869 0-3.383 1.488-3.383 3.324 0 1.836 1.514 3.325 3.382 3.325z" fill="#FD685D"/></g><defs><clipPath id="clip0"><path fill="#fff" d="M0 0h14v18H0z"/></clipPath></defs></svg>