<svg width="6" height="4" fill="none" xmlns="http://www.w3.org/2000/svg"><g clip-path="url(#clip0)"><path d="M5.866.1a.396.396 0 00-.564.04L3.001 2.957.699.141A.396.396 0 00.136.099a.431.431 0 00-.04.588L2.699 3.86c.008.017.024.017.04.033.008 0 .008.008.008.017a.06.06 0 01.031.016c.024.017.056.033.08.05.032.016.071.016.103.025.008 0 .024.008.032.008S3.017 4 3.024 4a.236.236 0 00.104-.025.353.353 0 00.095-.05.11.11 0 00.032-.025c.008 0 .008-.008.008-.016a.092.092 0 00.04-.033L5.904.679a.421.421 0 00-.04-.58z" fill="#484848"/></g><defs><clipPath id="clip0"><path fill="#fff" d="M0 0h6v4H0z"/></clipPath></defs></svg>