<svg width="801" height="9" fill="none" xmlns="http://www.w3.org/2000/svg"><path fill-rule="evenodd" clip-rule="evenodd" d="M-194 4a1 1 0 011-1h992a1 1 0 010 2h-992a1 1 0 01-1-1z" fill="#FD685D"/><path fill-rule="evenodd" clip-rule="evenodd" d="M794.59.35a.999.999 0 011.409-.11l3.84 3.28a1 1 0 11-1.298 1.52l-3.84-3.28a1 1 0 01-.111-1.41z" fill="#FD685D"/><path fill-rule="evenodd" clip-rule="evenodd" d="M799.951 3.642a1 1 0 01-.113 1.41l-3.84 3.27a1 1 0 11-1.296-1.523l3.84-3.27a1 1 0 011.409.113z" fill="#FD685D"/></svg>