<svg width="23" height="23" fill="none" xmlns="http://www.w3.org/2000/svg"><g clip-path="url(#clip0)" fill="#B8D8D8"><path d="M18.003 22.12H4.193c-.586 0-1.147-.25-1.537-.687a2.077 2.077 0 01-.517-1.605L3.577 6.516A2.065 2.065 0 015.632 4.67h10.933c1.058 0 1.942.794 2.055 1.845l1.438 13.312a2.07 2.07 0 01-2.055 2.292zM5.632 6.34a.398.398 0 00-.397.356L3.797 20.008a.403.403 0 00.397.444H18a.403.403 0 00.397-.444L16.959 6.696a.395.395 0 00-.394-.357H5.632z"/><path d="M14.854 10.11a.834.834 0 01-.835-.835V4.271c0-1.392-1.09-2.523-2.428-2.523h-.985c-1.338 0-2.429 1.131-2.429 2.523v5.004a.834.834 0 01-1.668 0V4.271c0-2.313 1.839-4.19 4.097-4.19h.985c2.258 0 4.097 1.88 4.097 4.19v5.004c0 .46-.374.834-.835.834zm.71 7.42H6.633a.834.834 0 010-1.669h8.928a.834.834 0 01.003 1.668z"/></g><defs><clipPath id="clip0"><path fill="#fff" d="M0 0h22.197v22.197H0z"/></clipPath></defs></svg>