<svg width="24" height="23" fill="none" xmlns="http://www.w3.org/2000/svg"><path d="M11.98 22.197c-5.233 0-9.832-3.38-11.187-8.214a.828.828 0 01.617-1.021c.463-.117.94.143 1.065.59 1.152 4.11 5.058 6.98 9.504 6.98 5.424 0 9.839-4.23 9.839-9.429 0-5.198-4.415-9.435-9.839-9.435-4.46 0-8.37 2.88-9.511 7.003-.122.444-.599.714-1.065.59C.94 9.146.66 8.689.786 8.242 2.13 3.39 6.733 0 11.98 0c6.385 0 11.58 4.978 11.58 11.097s-5.195 11.1-11.58 11.1z" fill="#B8D8D8"/><path d="M18.556 10.626l-3.781-2.572a.694.694 0 00-.94.153.63.63 0 00.16.901l2.1 1.428H1.336c-.373 0-.676.29-.676.647 0 .357.303.648.675.648h14.758l-2.103 1.428a.63.63 0 00-.16.9.69.69 0 00.94.154l3.781-2.572a.637.637 0 00.282-.558.626.626 0 00-.278-.557z" fill="#B8D8D8"/><path d="M14.381 14.6a.858.858 0 01-.692-.344.792.792 0 01.198-1.134l1.657-1.128H1.337c-.467 0-.85-.363-.85-.814 0-.45.38-.814.85-.814h14.207L13.89 9.242a.792.792 0 01-.201-1.135.854.854 0 01.55-.33.868.868 0 01.633.14l3.785 2.573c.236.16.369.423.355.7a.789.789 0 01-.355.688l-3.781 2.572a.868.868 0 01-.495.15zM1.337 10.703a.494.494 0 00-.502.48c0 .264.226.481.502.481H16.64l-2.549 1.732a.484.484 0 00-.205.31.454.454 0 00.087.357.53.53 0 00.7.113l3.78-2.572a.472.472 0 00.21-.414.486.486 0 00-.21-.43l-3.78-2.572a.525.525 0 00-.373-.084.484.484 0 00-.324.197.468.468 0 00.119.67L16.64 10.7H1.337v.003z" fill="#B8D8D8"/></svg>