<svg width="17" height="16" fill="none" xmlns="http://www.w3.org/2000/svg"><path d="M12.524 16h-8.04a.222.222 0 01-.226-.218V.218c0-.12.1-.218.227-.218h8.041c.126 0 .227.097.227.218v15.566a.224.224 0 01-.229.216z" fill="#B8D8D8"/><path d="M11.905 14.161h-6.8a.222.222 0 01-.227-.218V1.495c0-.12.1-.218.226-.218h6.8c.126 0 .227.097.227.218v12.448c0 .12-.1.218-.226.218z" fill="#fff"/><path d="M14.245 10.146a.176.176 0 01-.134-.06.166.166 0 01.02-.24 2.807 2.807 0 001.033-2.163c0-.901-.428-1.729-1.174-2.274a.165.165 0 01-.033-.238.18.18 0 01.247-.032c.836.61 1.316 1.537 1.316 2.545a3.14 3.14 0 01-1.158 2.423.2.2 0 01-.117.04z" fill="#FD685D"/><path d="M15.159 11.365c-.05 0-.1-.02-.135-.06a.166.166 0 01.02-.24 4.348 4.348 0 001.602-3.352c0-1.394-.664-2.678-1.82-3.521a.165.165 0 01-.034-.238.18.18 0 01.248-.033c1.245.91 1.96 2.292 1.96 3.792 0 1.39-.628 2.706-1.726 3.611a.179.179 0 01-.115.041zM2.757 10.146a.182.182 0 01-.115-.04 3.14 3.14 0 01-1.158-2.423c0-1.008.48-1.935 1.315-2.546a.182.182 0 01.248.032.166.166 0 01-.034.239A2.795 2.795 0 001.84 7.68c0 .832.377 1.62 1.034 2.164a.166.166 0 01.019.24.178.178 0 01-.136.061z" fill="#FD685D"/><path d="M1.841 11.365a.182.182 0 01-.115-.04A4.68 4.68 0 010 7.712C0 6.211.713 4.83 1.96 3.921a.182.182 0 01.248.033.166.166 0 01-.034.238C1.018 5.035.354 6.319.354 7.713c0 1.29.584 2.512 1.602 3.353a.166.166 0 01.02.24.181.181 0 01-.135.06z" fill="#FD685D"/><path d="M10.274.734H6.737A.136.136 0 016.598.6c0-.073.062-.133.139-.133h3.537c.076 0 .138.06.138.133a.136.136 0 01-.138.133z" fill="#fff"/><path d="M9.012 15.1a.499.499 0 01-.508.488.499.499 0 01-.509-.489c0-.269.227-.488.509-.488.281 0 .508.217.508.488z" fill="#FD685D"/></svg>