<svg width="12" height="12" fill="none" xmlns="http://www.w3.org/2000/svg"><g clip-path="url(#clip0)"><path d="M1.125 1.124a3.85 3.85 0 015.437 0 3.85 3.85 0 01.265 5.145l.79.804c.158-.162.32-.33.485-.495.22-.22.41-.22.628-.002l2.783 2.783c.21.21.368.448.434.742l.054.219v.315c-.062.188-.098.39-.19.562-.496.916-1.679 1.078-2.428.335-.936-.927-1.864-1.86-2.795-2.791-.233-.233-.232-.417.001-.65l.485-.485-.792-.79a3.85 3.85 0 01-5.157-.254 3.85 3.85 0 010-5.438zM7.84 8.98c.678.678 1.354 1.357 2.034 2.033.429.426 1.072.331 1.326-.195.142-.294.104-.574-.091-.833a1.112 1.112 0 00-.104-.118l-2.52-2.52c-.02-.02-.041-.038-.057-.053L7.29 8.43c.179.178.365.362.55.548zM1.586 6.1a3.196 3.196 0 004.515 0 3.196 3.196 0 000-4.514 3.196 3.196 0 00-4.515 0 3.196 3.196 0 000 4.514z" fill="#B8B8B8"/></g><defs><clipPath id="clip0"><path fill="#fff" transform="matrix(-1 0 0 1 12 0)" d="M0 0h12v12H0z"/></clipPath></defs></svg>