<svg width="19" height="23" viewBox="0 0 19 23" fill="none" xmlns="http://www.w3.org/2000/svg">
<path d="M16.003 22.1201H2.19381C1.60661 22.1201 1.0461 21.8698 0.655745 21.4328C0.265391 20.9957 0.0752187 20.4118 0.13861 19.828L1.57658 6.51591C1.69002 5.46495 2.57415 4.6709 3.63178 4.6709H14.565C15.6227 4.6709 16.5068 5.46495 16.6202 6.51591L18.0582 19.828C18.1216 20.4118 17.9314 20.9957 17.5411 21.4328C17.1507 21.8698 16.5869 22.1201 16.003 22.1201ZM3.63178 6.33908C3.42826 6.33908 3.25477 6.49255 3.23475 6.69607L1.79678 20.0081C1.7801 20.1616 1.8535 20.2684 1.89687 20.3184C1.94024 20.3685 2.04033 20.4519 2.19381 20.4519H15.9997C16.1565 20.4519 16.2532 20.3685 16.2966 20.3184C16.34 20.2684 16.4134 20.1616 16.3967 20.0081L14.9587 6.69607C14.9387 6.49255 14.7685 6.33908 14.565 6.33908H3.63178Z" fill="#B8D8D8"/>
<path d="M12.8535 10.1092C12.3931 10.1092 12.0194 9.7355 12.0194 9.27508V4.27055C12.0194 2.87928 10.9284 1.74826 9.59052 1.74826H8.6063C7.26842 1.74826 6.17743 2.87928 6.17743 4.27055V9.27508C6.17743 9.7355 5.80375 10.1092 5.34334 10.1092C4.88292 10.1092 4.50925 9.7355 4.50925 9.27508V4.27055C4.50925 1.95845 6.34758 0.0800781 8.6063 0.0800781H9.59052C11.8492 0.0800781 13.6876 1.96179 13.6876 4.27055V9.27508C13.6876 9.7355 13.3139 10.1092 12.8535 10.1092Z" fill="#B8D8D8"/>
<path d="M13.5641 17.5293H4.63267C4.17226 17.5293 3.79858 17.1556 3.79858 16.6952C3.79858 16.2348 4.17226 15.8611 4.63267 15.8611H13.5608C14.0212 15.8611 14.3949 16.2348 14.3949 16.6952C14.3949 17.1556 14.0245 17.5293 13.5641 17.5293Z" fill="#B8D8D8"/>
</svg>
