<svg width="739" height="9" viewBox="0 0 739 9" fill="none" xmlns="http://www.w3.org/2000/svg">
<path fill-rule="evenodd" clip-rule="evenodd" d="M1890 4C1890 3.44772 1889.15 3 1888.1 3L2.26212 3.00017C1.21215 3.00017 0.361071 3.44788 0.361071 4.00017C0.361071 4.55245 1.21215 5.00017 2.26212 5.00017L1888.1 5C1889.15 5 1890 4.55228 1890 4Z" fill="#FD685D"/>
<path fill-rule="evenodd" clip-rule="evenodd" d="M10.6465 0.350533C9.96457 -0.0694099 8.7646 -0.119056 7.96627 0.239646L0.666261 3.51965C-0.132069 3.87835 -0.226448 4.50956 0.455459 4.92951C1.13737 5.34945 2.33734 5.39909 3.13567 5.04039L10.4357 1.76039C11.234 1.40169 11.3284 0.770475 10.6465 0.350533Z" fill="#FD685D"/>
<path fill-rule="evenodd" clip-rule="evenodd" d="M0.453599 3.64172C-0.227105 4.0622 -0.130916 4.69334 0.66844 5.05141L7.96845 8.32141C8.7678 8.67948 9.96763 8.62888 10.6483 8.2084C11.329 7.78791 11.2328 7.15677 10.4335 6.79871L3.13348 3.52871C2.33413 3.17064 1.1343 3.22124 0.453599 3.64172Z" fill="#FD685D"/>
</svg>
