<svg width="801" height="9" viewBox="0 0 801 9" fill="none" xmlns="http://www.w3.org/2000/svg">
<path fill-rule="evenodd" clip-rule="evenodd" d="M-194 4C-194 3.44772 -193.552 3 -193 3L799 3.00009C799.552 3.00009 800 3.4478 800 4.00009C800 4.55237 799.552 5.00009 799 5.00009L-193 5C-193.552 5 -194 4.55228 -194 4Z" fill="#FD685D"/>
<path fill-rule="evenodd" clip-rule="evenodd" d="M794.59 0.350533C794.948 -0.0694099 795.58 -0.119056 795.999 0.239646L799.839 3.51965C800.259 3.87835 800.309 4.50956 799.95 4.92951C799.592 5.34945 798.96 5.39909 798.541 5.04039L794.701 1.76039C794.281 1.40169 794.231 0.770475 794.59 0.350533Z" fill="#FD685D"/>
<path fill-rule="evenodd" clip-rule="evenodd" d="M799.951 3.64172C800.309 4.0622 800.259 4.69334 799.838 5.05141L795.998 8.32141C795.578 8.67948 794.947 8.62888 794.589 8.2084C794.231 7.78791 794.281 7.15677 794.702 6.79871L798.542 3.52871C798.962 3.17064 799.593 3.22124 799.951 3.64172Z" fill="#FD685D"/>
</svg>
