<svg width="6" height="4" viewBox="0 0 6 4" fill="none" xmlns="http://www.w3.org/2000/svg">
<g clip-path="url(#clip0)">
<path d="M5.86572 0.0990996C5.69906 -0.0499687 5.44509 -0.025124 5.30223 0.140507L3.00064 2.95624L0.699057 0.140507C0.5562 -0.025124 0.310168 -0.0499687 0.135565 0.0990996C-0.0311016 0.248168 -0.0469746 0.513178 0.0958825 0.687091L2.69906 3.85893C2.70699 3.8755 2.72287 3.8755 2.73874 3.89206C2.74668 3.89206 2.74668 3.90034 2.74668 3.90862C2.75461 3.90862 2.77049 3.9169 2.77842 3.92519C2.80223 3.94175 2.83398 3.95831 2.85779 3.97488C2.88953 3.99144 2.92922 3.99144 2.96096 3.99972C2.9689 3.99972 2.98477 4.008 2.99271 4.008C3.00064 4.008 3.01652 3.99972 3.02445 3.99972C3.0562 3.99972 3.09588 3.99144 3.12763 3.97488C3.17525 3.95831 3.19906 3.94175 3.22287 3.92519C3.23874 3.9169 3.24668 3.90862 3.25461 3.90034C3.26255 3.90034 3.26255 3.89206 3.26255 3.88378C3.27842 3.8755 3.2943 3.86722 3.30223 3.85065L5.90541 0.67881C6.04826 0.513178 6.03239 0.248168 5.86572 0.0990996Z" fill="#484848"/>
</g>
<defs>
<clipPath id="clip0">
<rect width="6" height="4" fill="white"/>
</clipPath>
</defs>
</svg>
