<svg width="23" height="8" viewBox="0 0 23 8" fill="none" xmlns="http://www.w3.org/2000/svg">
<path d="M0.379883 3.78243C0.379883 4.06243 0.599882 4.28243 0.879883 4.28243L21.8799 4.28243C22.1599 4.28243 22.3799 4.06243 22.3799 3.78243C22.3799 3.50243 22.1599 3.28243 21.8799 3.28243L0.879883 3.28243C0.599882 3.28243 0.379883 3.51243 0.379883 3.78243Z" fill="white"/>
<path d="M-0.000118256 3.78243C-0.000118256 3.90243 0.0398846 4.01243 0.119884 4.11243C0.299885 4.32243 0.619884 4.34243 0.829884 4.16243L4.65988 0.882427C4.86988 0.702427 4.88988 0.382427 4.70988 0.172427C4.52988 -0.0375732 4.20988 -0.0575729 3.99988 0.122427L0.169884 3.40243C0.0598831 3.50243 -0.000118256 3.64243 -0.000118256 3.78243Z" fill="white"/>
<path d="M-0.000118256 3.79243C-0.000118256 3.93243 0.0598831 4.07243 0.169884 4.17243L3.99988 7.45243C4.20988 7.63243 4.52988 7.61243 4.70988 7.40243C4.88988 7.19243 4.85988 6.87243 4.65988 6.69243L0.829884 3.41243C0.619884 3.23243 0.299885 3.25243 0.119884 3.46243C0.0398846 3.56243 -0.000118256 3.68243 -0.000118256 3.79243Z" fill="white"/>
</svg>
