<svg width="23" height="23" viewBox="0 0 23 23" fill="none" xmlns="http://www.w3.org/2000/svg">
<g clip-path="url(#clip0)">
<path d="M18.003 22.1201H4.19381C3.60661 22.1201 3.0461 21.8698 2.65575 21.4328C2.26539 20.9957 2.07522 20.4118 2.13861 19.828L3.57658 6.51591C3.69002 5.46495 4.57415 4.6709 5.63178 4.6709H16.565C17.6227 4.6709 18.5068 5.46495 18.6202 6.51591L20.0582 19.828C20.1216 20.4118 19.9314 20.9957 19.5411 21.4328C19.1507 21.8698 18.5869 22.1201 18.003 22.1201ZM5.63178 6.33908C5.42826 6.33908 5.25477 6.49255 5.23475 6.69607L3.79678 20.0081C3.7801 20.1616 3.8535 20.2684 3.89687 20.3184C3.94024 20.3685 4.04033 20.4519 4.19381 20.4519H17.9997C18.1565 20.4519 18.2532 20.3685 18.2966 20.3184C18.34 20.2684 18.4134 20.1616 18.3967 20.0081L16.9587 6.69607C16.9387 6.49255 16.7685 6.33908 16.565 6.33908H5.63178Z" fill="#B8D8D8"/>
<path d="M14.8535 10.1092C14.3931 10.1092 14.0194 9.7355 14.0194 9.27508V4.27055C14.0194 2.87928 12.9284 1.74826 11.5905 1.74826H10.6063C9.26842 1.74826 8.17743 2.87928 8.17743 4.27055V9.27508C8.17743 9.7355 7.80375 10.1092 7.34334 10.1092C6.88292 10.1092 6.50925 9.7355 6.50925 9.27508V4.27055C6.50925 1.95845 8.34758 0.0800781 10.6063 0.0800781H11.5905C13.8492 0.0800781 15.6876 1.96179 15.6876 4.27055V9.27508C15.6876 9.7355 15.3139 10.1092 14.8535 10.1092Z" fill="#B8D8D8"/>
<path d="M15.5641 17.5293H6.63267C6.17226 17.5293 5.79858 17.1556 5.79858 16.6952C5.79858 16.2348 6.17226 15.8611 6.63267 15.8611H15.5608C16.0212 15.8611 16.3949 16.2348 16.3949 16.6952C16.3949 17.1556 16.0245 17.5293 15.5641 17.5293Z" fill="#B8D8D8"/>
</g>
<defs>
<clipPath id="clip0">
<rect width="22.1968" height="22.1968" fill="white"/>
</clipPath>
</defs>
</svg>
