<svg width="24" height="23" viewBox="0 0 24 23" fill="none" xmlns="http://www.w3.org/2000/svg">
<g clip-path="url(#clip0)">
<path d="M11.9792 22.1968C6.74662 22.1968 2.14766 18.8171 0.793389 13.9827C0.668058 13.5389 0.94309 13.0785 1.4096 12.9618C1.87263 12.845 2.34958 13.1052 2.47491 13.5523C3.62726 17.6627 7.53342 20.532 11.9792 20.532C17.4032 20.532 21.8177 16.3015 21.8177 11.1034C21.8177 5.90536 17.4032 1.66818 11.9792 1.66818C7.51949 1.66818 3.60986 4.54746 2.46795 8.6712C2.3461 9.11493 1.86915 9.38518 1.40264 9.26173C0.939609 9.14496 0.661095 8.68788 0.786426 8.24081C2.13025 3.38974 6.73269 0 11.9792 0C18.3641 0 23.5584 4.97785 23.5584 11.0967C23.5584 17.2156 18.3641 22.1968 11.9792 22.1968Z" fill="#B8D8D8"/>
<path d="M18.5556 10.6262L14.7748 8.05384C14.4719 7.84699 14.0506 7.91705 13.8348 8.20731C13.6189 8.49758 13.6921 8.90128 13.9949 9.10813L16.0942 10.5361H1.3365C0.963986 10.5361 0.661102 10.8264 0.661102 11.1833C0.661102 11.5403 0.963986 11.8306 1.3365 11.8306H16.0942L13.9915 13.2586C13.6886 13.4654 13.6155 13.8691 13.8313 14.1594C13.9636 14.3362 14.1725 14.433 14.3814 14.433C14.5171 14.433 14.6529 14.3929 14.7713 14.3129L18.5521 11.7405C18.7471 11.6071 18.8446 11.3935 18.8341 11.1833C18.848 10.9732 18.7506 10.7596 18.5556 10.6262Z" fill="#B8D8D8"/>
<path d="M14.3814 14.6C14.1063 14.6 13.8487 14.4732 13.6886 14.2563C13.5563 14.0795 13.5075 13.8626 13.5424 13.6491C13.5806 13.4356 13.7025 13.2488 13.887 13.122L15.5442 11.9943H1.3365C0.869986 11.9943 0.48703 11.6306 0.48703 11.1802C0.48703 10.7298 0.866505 10.3661 1.3365 10.3661H15.5442L13.8905 9.24178C13.5075 8.98155 13.417 8.47109 13.6886 8.10742C13.8209 7.9306 14.0158 7.81382 14.2386 7.77712C14.4614 7.74042 14.6877 7.79047 14.8723 7.91725L18.6566 10.4896C18.8933 10.6497 19.0256 10.9133 19.0117 11.1902C19.0256 11.4538 18.8933 11.7174 18.6566 11.8775L14.8757 14.4498C14.7295 14.5499 14.5589 14.6 14.3814 14.6ZM1.3365 10.7031C1.06146 10.7031 0.835172 10.92 0.835172 11.1835C0.835172 11.4471 1.06146 11.664 1.3365 11.664H16.6408L14.0924 13.3956C13.9845 13.469 13.9114 13.5791 13.887 13.7058C13.8661 13.8326 13.894 13.9594 13.974 14.0628C14.1272 14.2697 14.4545 14.3264 14.6738 14.1763L18.4546 11.6039C18.5939 11.5105 18.6705 11.3537 18.6635 11.1902C18.6705 11.0101 18.5939 10.8566 18.4546 10.7598L14.6738 8.1875C14.5659 8.1141 14.4301 8.08407 14.3013 8.10409C14.169 8.1241 14.0541 8.19417 13.9775 8.30093C13.8174 8.51779 13.8696 8.81807 14.0959 8.97154L16.6408 10.6998H1.3365V10.7031Z" fill="#B8D8D8"/>
</g>
<defs>
<clipPath id="clip0">
<rect width="23.1619" height="22.1968" fill="white" transform="translate(0.441772)"/>
</clipPath>
</defs>
</svg>
