<svg width="13" height="15" viewBox="0 0 13 15" fill="none" xmlns="http://www.w3.org/2000/svg">
<g clip-path="url(#clip0)">
<path d="M12.8485 5.91357H0.151581V14.6448H12.8485V5.91357Z" fill="#B8D8D8"/>
<path d="M9.67501 2.95672L6.50003 0L3.32656 2.95672L0.151581 5.91345L3.32656 8.86859L6.50003 11.8253L9.67501 8.86859L12.8485 5.91345L9.67501 2.95672Z" fill="#B8D8D8"/>
<path d="M6.50003 8.93018L9.67501 11.8869L12.8485 14.842H6.50003H0.151581L3.32656 11.8869L6.50003 8.93018Z" fill="#B8D8D8"/>
<path d="M12.8485 15H0.151557C0.0879062 15 0.0318325 14.959 0.0106155 14.8989C-0.0121171 14.8373 0.00455345 14.7678 0.0515341 14.7252L6.39998 8.81176C6.45757 8.75806 6.54396 8.75806 6.60155 8.81176L12.95 14.7252C12.997 14.7694 13.0136 14.8373 12.9909 14.8989C12.9682 14.9605 12.9121 15 12.8485 15ZM0.54862 14.6841H12.4514L6.50001 9.14186L0.54862 14.6841Z" fill="#FD685D"/>
<path d="M7.92759 3.31198C8.33829 3.53626 8.65958 3.84899 8.88842 4.25017C9.11726 4.65135 9.23092 5.10307 9.23092 5.60849C9.23092 6.12971 9.13241 6.53721 8.93691 6.83098C8.74141 7.12476 8.47014 7.27323 8.12309 7.27323C7.9382 7.27323 7.7821 7.229 7.65631 7.13898C7.52901 7.04895 7.44111 6.91943 7.3911 6.75043C7.16074 7.09949 6.81369 7.27323 6.35298 7.27323C6.0908 7.27323 5.85438 7.20847 5.64372 7.07738C5.43155 6.94786 5.26636 6.76623 5.14815 6.53247C5.02843 6.30029 4.96932 6.03494 4.96932 5.73959C4.96932 5.44739 5.02843 5.1852 5.14815 4.9546C5.26788 4.724 5.43307 4.54395 5.64372 4.41285C5.85589 4.28334 6.0908 4.217 6.35298 4.217C6.55757 4.217 6.74095 4.25333 6.90311 4.32598C7.06678 4.39864 7.20469 4.50446 7.31532 4.64503V4.25333H7.95638V6.29713C7.95638 6.44086 7.98366 6.5451 8.03974 6.60986C8.09581 6.67462 8.16704 6.70621 8.25645 6.70621C8.41407 6.70621 8.53379 6.61302 8.61714 6.42665C8.7005 6.24027 8.74141 5.97019 8.74141 5.61797C8.74141 5.1931 8.64745 4.81877 8.46105 4.4934C8.27464 4.16962 8.01397 3.91691 7.67905 3.73527C7.34412 3.55521 6.95918 3.46518 6.52575 3.46518C6.08777 3.46518 5.69828 3.55995 5.36032 3.75106C5.02237 3.94218 4.76018 4.20752 4.57529 4.54711C4.3904 4.88827 4.29795 5.27523 4.29795 5.708C4.29795 6.14866 4.38888 6.54037 4.57226 6.87995C4.75412 7.22111 5.01327 7.48645 5.3482 7.67599C5.68313 7.8671 6.06655 7.96187 6.5015 7.96187C6.68942 7.96187 6.88037 7.93976 7.07587 7.89553C7.26986 7.85131 7.45172 7.78497 7.62146 7.69652L7.77755 8.17667C7.60782 8.26828 7.40929 8.33935 7.18044 8.38674C6.9516 8.4357 6.72579 8.45939 6.50301 8.45939C5.96501 8.45939 5.48914 8.34093 5.07541 8.10402C4.66168 7.8671 4.34039 7.54173 4.11155 7.12476C3.88271 6.70779 3.76904 6.23553 3.76904 5.70642C3.76904 5.1852 3.88422 4.71769 4.11458 4.30229C4.34493 3.8869 4.66925 3.56153 5.08602 3.32461C5.50278 3.0877 5.9832 2.96924 6.52575 2.96924C7.0486 2.97556 7.51537 3.0877 7.92759 3.31198ZM7.088 6.43454C7.24713 6.26396 7.32745 6.03336 7.32745 5.73959C7.32745 5.45055 7.24713 5.22311 7.088 5.05411C6.92887 4.88511 6.72428 4.8014 6.47422 4.8014C6.22113 4.8014 6.01502 4.88669 5.85741 5.05727C5.6998 5.22785 5.62099 5.45529 5.62099 5.73959C5.62099 6.02863 5.6998 6.25765 5.85741 6.43138C6.01502 6.60354 6.22113 6.69041 6.47422 6.69041C6.72428 6.69041 6.92887 6.60512 7.088 6.43454Z" fill="white"/>
<path d="M12.8484 15.0001H0.15155C0.0681977 15.0001 0 14.929 0 14.8422V5.91357C0 5.85513 0.0303101 5.80143 0.0803218 5.77458C0.130333 5.74773 0.189438 5.75089 0.236419 5.78248L5.70133 9.62527C5.77104 9.67423 5.78923 9.77216 5.74225 9.84481C5.69527 9.91746 5.60131 9.93642 5.53159 9.88745L0.303101 6.21051V14.6858H12.6969V6.21051L7.46992 9.88588C7.40021 9.93484 7.30625 9.91588 7.25927 9.84323C7.21229 9.77058 7.23047 9.67265 7.30019 9.62369L12.7636 5.7809C12.8106 5.74773 12.8697 5.74457 12.9197 5.773C12.9697 5.79985 13 5.85355 13 5.91199V14.8422C13 14.9306 12.9318 15.0001 12.8484 15.0001Z" fill="#FD685D"/>
</g>
<defs>
<clipPath id="clip0">
<rect width="13" height="15" fill="white"/>
</clipPath>
</defs>
</svg>
