<svg width="14" height="18" viewBox="0 0 14 18" fill="none" xmlns="http://www.w3.org/2000/svg">
<g clip-path="url(#clip0)">
<path d="M13.9956 6.87638C13.9956 3.07915 10.8632 0 6.99847 0C3.13567 0 0.0033433 3.07915 0.0033433 6.87638C0.0033433 6.87638 -0.394041 12.554 6.05956 17.6764C6.60499 18.1091 7.39196 18.1091 7.93544 17.6764C14.3929 12.554 13.9956 6.87638 13.9956 6.87638Z" fill="#B8D8D8"/>
<path d="M6.99909 10.0167C8.86673 10.0167 10.3808 8.52835 10.3808 6.69242C10.3808 4.85648 8.86673 3.36816 6.99909 3.36816C5.13145 3.36816 3.61743 4.85648 3.61743 6.69242C3.61743 8.52835 5.13145 10.0167 6.99909 10.0167Z" fill="#FD685D"/>
</g>
<defs>
<clipPath id="clip0">
<rect width="14" height="18" fill="white"/>
</clipPath>
</defs>
</svg>
