<svg width="17" height="16" viewBox="0 0 17 16" fill="none" xmlns="http://www.w3.org/2000/svg">
<path d="M12.5243 16H4.4846C4.3589 16 4.25798 15.9029 4.25798 15.7821V0.217942C4.25798 0.0970522 4.3589 0 4.4846 0H12.526C12.6518 0 12.7527 0.0970522 12.7527 0.217942V15.7838C12.7509 15.9029 12.65 16 12.5243 16Z" fill="#B8D8D8"/>
<path d="M11.9046 14.1612H5.1042C4.9785 14.1612 4.87758 14.0642 4.87758 13.9433V1.49504C4.87758 1.37415 4.9785 1.2771 5.1042 1.2771H11.9046C12.0303 1.2771 12.1312 1.37415 12.1312 1.49504V13.9433C12.1312 14.0625 12.0303 14.1612 11.9046 14.1612Z" fill="white"/>
<path d="M14.2452 10.1463C14.1956 10.1463 14.146 10.1259 14.1106 10.0867C14.0469 10.0152 14.0557 9.90792 14.1301 9.84663C14.7869 9.30347 15.1641 8.51514 15.1641 7.68253C15.1641 6.78182 14.7356 5.95432 13.9902 5.40946C13.9123 5.35327 13.8964 5.24601 13.9566 5.17109C14.015 5.09617 14.1266 5.08085 14.2045 5.13874C15.0401 5.74829 15.5199 6.67625 15.5199 7.68423C15.5199 8.61559 15.0985 9.49928 14.362 10.1071C14.3266 10.1327 14.2859 10.1463 14.2452 10.1463Z" fill="#FD685D"/>
<path d="M15.1588 11.3653C15.1092 11.3653 15.0596 11.3449 15.0242 11.3057C14.9605 11.2342 14.9693 11.1269 15.0437 11.0656C16.0617 10.2245 16.646 9.00198 16.646 7.71306C16.646 6.31857 15.9821 5.03476 14.8259 4.19193C14.748 4.13575 14.7321 4.02848 14.7923 3.95356C14.8507 3.87864 14.9623 3.86332 15.0402 3.92121C16.2848 4.83044 17.0001 6.213 17.0001 7.71306C17.0001 9.10244 16.3716 10.4186 15.2739 11.3244C15.242 11.3517 15.1995 11.3653 15.1588 11.3653Z" fill="#FD685D"/>
<path d="M2.75668 10.1463C2.71596 10.1463 2.67524 10.1327 2.6416 10.1054C1.90509 9.49757 1.48372 8.61389 1.48372 7.68253C1.48372 6.67454 1.96352 5.74829 2.79917 5.13703C2.87708 5.08085 2.98861 5.09447 3.04704 5.16938C3.10546 5.2443 3.0913 5.35157 3.0134 5.40776C2.26626 5.95261 1.83958 6.78181 1.83958 7.68082C1.83958 8.51343 2.21669 9.30176 2.87353 9.84492C2.94789 9.90621 2.95675 10.0135 2.89301 10.085C2.85583 10.1276 2.80626 10.1463 2.75668 10.1463Z" fill="#FD685D"/>
<path d="M1.84128 11.3653C1.80056 11.3653 1.75984 11.3517 1.7262 11.3244C0.628515 10.4186 0 9.10244 0 7.71306C0 6.21131 0.713497 4.82874 1.9599 3.92121C2.0378 3.86503 2.14934 3.87865 2.20777 3.95356C2.26619 4.02848 2.25203 4.13575 2.17413 4.19194C1.01802 5.03476 0.354093 6.31857 0.354093 7.71306C0.354093 9.00369 0.938346 10.2245 1.95636 11.0656C2.03072 11.1269 2.03958 11.2342 1.97584 11.3057C1.94043 11.3449 1.89086 11.3653 1.84128 11.3653Z" fill="#FD685D"/>
<path d="M10.274 0.733878H6.73659C6.66046 0.733878 6.5985 0.674285 6.5985 0.60107C6.5985 0.527855 6.66046 0.468262 6.73659 0.468262H10.274C10.3501 0.468262 10.4121 0.527855 10.4121 0.60107C10.4121 0.674285 10.3501 0.733878 10.274 0.733878Z" fill="white"/>
<path d="M9.01168 15.0993C9.01168 15.3683 8.78506 15.5879 8.50356 15.5879C8.22383 15.5879 7.99544 15.37 7.99544 15.0993C7.99544 14.8302 8.22206 14.6106 8.50356 14.6106C8.78506 14.6106 9.01168 14.8285 9.01168 15.0993Z" fill="#FD685D"/>
</svg>
