<svg width="12" height="12" viewBox="0 0 12 12" fill="none" xmlns="http://www.w3.org/2000/svg">
<path d="M1.12485 1.12445C2.62372 -0.374492 5.06318 -0.374492 6.56205 1.12445C7.96679 2.52927 8.05507 4.75983 6.8269 6.26852C7.0846 6.53143 7.34686 6.79889 7.61625 7.07349C7.77529 6.9112 7.93757 6.74306 8.10246 6.57752C8.32187 6.3581 8.51141 6.3581 8.72952 6.57623C9.65715 7.50325 10.5848 8.43157 11.513 9.35859C11.7234 9.56827 11.8811 9.80717 11.9473 10.1006C11.9635 10.174 11.983 10.2473 12.0012 10.32C12.0012 10.4252 12.0012 10.5297 12.0012 10.6349C11.9389 10.8231 11.9032 11.025 11.8103 11.1971C11.315 12.113 10.1323 12.2753 9.38256 11.532C8.44715 10.605 7.51888 9.67149 6.58801 8.74057C6.35497 8.50752 6.35562 8.32445 6.58931 8.0901C6.75354 7.92521 6.91842 7.76162 7.07422 7.60647C6.80612 7.33901 6.54582 7.07869 6.28227 6.81577C4.77367 8.05505 2.53478 7.97065 1.1255 6.56194C-0.374014 5.06235 -0.374013 2.6234 1.12485 1.12445ZM7.8402 8.97882C8.51791 9.65656 9.19431 10.3362 9.87396 11.012C10.303 11.4379 10.9463 11.3431 11.2002 10.8166C11.3417 10.5232 11.304 10.2428 11.1086 9.98374C11.0775 9.9422 11.0418 9.9026 11.0048 9.86559C10.1654 9.02556 9.32544 8.18553 8.48545 7.34615C8.46532 7.32602 8.4439 7.30785 8.42767 7.29291C8.04338 7.67723 7.66948 8.05115 7.28973 8.43092C7.46889 8.60879 7.6552 8.79316 7.8402 8.97882ZM1.58639 6.10038C2.83079 7.34485 4.85611 7.34485 6.10051 6.10038C7.34491 4.85591 7.34491 2.83049 6.10051 1.58602C4.85611 0.341548 2.83079 0.341548 1.58639 1.58602C0.341989 2.83049 0.341989 4.85591 1.58639 6.10038Z" fill="#B8B8B8"/>
</svg>
